<?xml version="1.0" encoding="UTF-8"?>
<svg width="416px" height="184px" viewBox="0 0 416 184" version="1.1" xmlns="http://www.w3.org/2000/svg" xmlns:xlink="http://www.w3.org/1999/xlink">
    <!-- Generator: Sketch 55.2 (78181) - https://sketchapp.com -->
    <title>Group</title>
    <desc>Created with Sketch.</desc>
    <g id="V2" stroke="none" stroke-width="1" fill="none" fill-rule="evenodd">
        <g id="[desktop]-case-study" transform="translate(-290.000000, -2430.000000)">
            <g id="Group" transform="translate(290.000000, 2430.000000)">
                <text id="Google" font-family="Inconsolata-Regular, Inconsolata" font-size="16" font-weight="normal" fill="#1E1E1E">
                    <tspan x="352" y="96">Google</tspan>
                </text>
                <text id="DropBox" font-family="Inconsolata-Regular, Inconsolata" font-size="16" font-weight="normal" fill="#1E1E1E">
                    <tspan x="352" y="41">DropBox</tspan>
                </text>
                <text id="Evernote" font-family="Inconsolata-Regular, Inconsolata" font-size="16" font-weight="normal" fill="#1E1E1E">
                    <tspan x="352" y="154">Evernote</tspan>
                </text>
                <polygon id="Path" fill="#F5A623" fill-rule="nonzero" points="300 79 334 79 334 107 300 107"></polygon>
                <polygon id="Rectangle-2" fill="#4A90E2" fill-rule="nonzero" points="300 24 334 24 334 52 300 52"></polygon>
                <polygon id="Rectangle-2" fill="#4A90E2" fill-rule="nonzero" points="3 24 89 24 89 52 3 52"></polygon>
                <polygon id="Rectangle-2" fill="#417505" fill-rule="nonzero" points="300 137 334 137 334 165 300 165"></polygon>
                <polygon id="Rectangle-2" fill="#417505" fill-rule="nonzero" points="4 137 75 137 75 165 4 165"></polygon>
                <path d="M0.5,0.933673469 L0.5,182.066327" id="Line-2" stroke="#000000" stroke-linecap="square" fill-rule="nonzero"></path>
                <path d="M3.95412844,183.5 L210.045872,183.5" id="Line-3" stroke="#000000" stroke-linecap="square" fill-rule="nonzero"></path>
                <polygon id="Rectangle-2" fill="#F5A623" fill-rule="nonzero" points="4 81 151 81 151 109 4 109"></polygon>
            </g>
        </g>
    </g>
</svg>